<svg id="visual" viewBox="0 0 900 600" width="900" height="600" xmlns="http://www.w3.org/2000/svg" xmlns:xlink="http://www.w3.org/1999/xlink" version="1.1"><rect x="0" y="0" width="900" height="600" fill="#55B4E5"></rect><defs><linearGradient id="grad1_0" x1="33.3%" y1="0%" x2="100%" y2="100%"><stop offset="20%" stop-color="#12a2ea" stop-opacity="1"></stop><stop offset="80%" stop-color="#12a2ea" stop-opacity="1"></stop></linearGradient></defs><defs><linearGradient id="grad1_1" x1="33.3%" y1="0%" x2="100%" y2="100%"><stop offset="20%" stop-color="#12a2ea" stop-opacity="1"></stop><stop offset="80%" stop-color="#3aabe8" stop-opacity="1"></stop></linearGradient></defs><defs><linearGradient id="grad1_2" x1="33.3%" y1="0%" x2="100%" y2="100%"><stop offset="20%" stop-color="#55b4e5" stop-opacity="1"></stop><stop offset="80%" stop-color="#3aabe8" stop-opacity="1"></stop></linearGradient></defs><defs><linearGradient id="grad2_0" x1="0%" y1="0%" x2="66.7%" y2="100%"><stop offset="20%" stop-color="#12a2ea" stop-opacity="1"></stop><stop offset="80%" stop-color="#12a2ea" stop-opacity="1"></stop></linearGradient></defs><defs><linearGradient id="grad2_1" x1="0%" y1="0%" x2="66.7%" y2="100%"><stop offset="20%" stop-color="#3aabe8" stop-opacity="1"></stop><stop offset="80%" stop-color="#12a2ea" stop-opacity="1"></stop></linearGradient></defs><defs><linearGradient id="grad2_2" x1="0%" y1="0%" x2="66.7%" y2="100%"><stop offset="20%" stop-color="#3aabe8" stop-opacity="1"></stop><stop offset="80%" stop-color="#55b4e5" stop-opacity="1"></stop></linearGradient></defs><g transform="translate(900, 0)"><path d="M0 378.6C-52.6 369.6 -105.2 360.7 -136.6 329.8C-168 298.9 -178.2 246.1 -215.7 215.7C-253.2 185.2 -318.1 177.1 -349.8 144.9C-381.5 112.7 -380 56.3 -378.6 0L0 0Z" fill="#48b0e6"></path><path d="M0 252.4C-35.1 246.4 -70.2 240.5 -91.1 219.9C-112 199.3 -118.8 164.1 -143.8 143.8C-168.8 123.5 -212 118.1 -233.2 96.6C-254.3 75.1 -253.4 37.6 -252.4 0L0 0Z" fill="#2aa7e9"></path><path d="M0 126.2C-17.5 123.2 -35.1 120.2 -45.5 109.9C-56 99.6 -59.4 82 -71.9 71.9C-84.4 61.7 -106 59 -116.6 48.3C-127.2 37.6 -126.7 18.8 -126.2 0L0 0Z" fill="#12a2ea"></path></g><g transform="translate(0, 600)"><path d="M0 -378.6C42.8 -358.4 85.6 -338.1 133.9 -323.4C182.3 -308.6 236.1 -299.3 267.7 -267.7C299.3 -236.1 308.6 -182.3 323.4 -133.9C338.1 -85.6 358.4 -42.8 378.6 0L0 0Z" fill="#48b0e6"></path><path d="M0 -252.4C28.5 -238.9 57.1 -225.4 89.3 -215.6C121.5 -205.7 157.4 -199.5 178.5 -178.5C199.5 -157.4 205.7 -121.5 215.6 -89.3C225.4 -57.1 238.9 -28.5 252.4 0L0 0Z" fill="#2aa7e9"></path><path d="M0 -126.2C14.3 -119.5 28.5 -112.7 44.6 -107.8C60.8 -102.9 78.7 -99.8 89.2 -89.2C99.8 -78.7 102.9 -60.8 107.8 -44.6C112.7 -28.5 119.5 -14.3 126.2 0L0 0Z" fill="#12a2ea"></path></g></svg>